<?xml version="1.0" standalone="no"?>
<!DOCTYPE svg PUBLIC "-//W3C//DTD SVG 20010904//EN"
 "http://www.w3.org/TR/2001/REC-SVG-20010904/DTD/svg10.dtd">
<svg version="1.0" xmlns="http://www.w3.org/2000/svg"
 width="3009.000000pt" height="3009.000000pt" viewBox="0 0 3009.000000 3009.000000"
 preserveAspectRatio="xMidYMid meet">
<metadata>
Created by potrace 1.11, written by Peter Selinger 2001-2013
</metadata>
<g transform="translate(0.000000,3009.000000) scale(0.100000,-0.100000)"
fill="#000000" stroke="none">
<path d="M14905 30066 c-83 -23 -155 -55 -214 -93 -59 -38 -14409 -14372
-14527 -14511 -137 -162 -192 -344 -153 -510 19 -81 95 -224 170 -323 52 -68
2002 -2025 7083 -7108 3856 -3857 7090 -7091 7186 -7185 185 -181 232 -219
333 -266 90 -42 169 -60 267 -60 106 0 180 18 290 71 l85 41 7276 7277 7277
7276 41 85 c100 205 89 408 -31 615 -35 61 -935 964 -7297 7325 -5580 5580
-7269 7263 -7313 7289 -102 59 -190 84 -313 88 -74 2 -126 -2 -160 -11z m9735
-14986 l0 -3350 -9630 0 -9630 0 0 3350 0 3350 9630 0 9630 0 0 -3350z"/>
<path d="M10135 16360 c-139 -8 -435 -32 -582 -47 l-63 -6 0 -973 0 -974 400
0 400 0 0 174 0 174 203 5 c220 5 269 13 409 72 258 109 448 334 503 597 22
102 19 320 -4 436 -65 314 -277 485 -658 531 -129 16 -431 21 -608 11z m527
-528 c68 -39 81 -158 29 -267 -46 -100 -114 -160 -270 -239 -71 -36 -132 -66
-135 -66 -3 0 -6 101 -6 225 l0 225 58 37 c164 105 249 128 324 85z"/>
<path d="M12275 16360 c-139 -8 -435 -32 -582 -47 l-63 -6 0 -973 0 -974 400
0 400 0 0 174 0 174 203 5 c220 5 269 13 409 72 258 109 448 334 503 597 22
102 19 320 -4 436 -65 314 -277 485 -658 531 -129 16 -431 21 -608 11z m527
-528 c68 -39 81 -158 29 -267 -46 -100 -114 -160 -270 -239 -71 -36 -132 -66
-135 -66 -3 0 -6 101 -6 225 l0 225 58 37 c164 105 249 128 324 85z"/>
<path d="M16335 16363 c-160 -7 -763 -44 -797 -49 l-38 -6 0 -974 0 -974 400
0 400 0 2 273 3 274 165 -273 165 -273 483 -1 c265 0 482 3 482 6 0 5 -353
469 -471 620 l-49 61 87 64 c198 146 293 328 293 558 0 194 -55 326 -190 462
-72 73 -101 94 -180 132 -186 90 -382 116 -755 100z m334 -518 c40 -20 61 -71
61 -147 0 -120 -77 -228 -221 -313 -63 -37 -191 -95 -208 -95 -8 0 -11 68 -9
232 l3 232 80 34 c177 75 237 87 294 57z"/>
<path d="M22005 16359 c-386 -52 -732 -317 -855 -656 -83 -232 -80 -509 9
-739 64 -165 219 -354 380 -463 365 -248 886 -254 1267 -15 172 108 290 237
374 409 74 150 94 245 94 440 1 163 -8 225 -46 345 -110 344 -416 596 -809
664 -112 20 -325 27 -414 15z m392 -600 c107 -40 136 -170 79 -349 -65 -201
-201 -386 -325 -442 -53 -24 -133 -20 -184 9 -101 60 -104 235 -7 449 58 130
185 280 272 323 47 23 119 28 165 10z"/>
<path d="M7883 16329 c-28 -11 -68 -37 -89 -57 -27 -27 -168 -288 -525 -971
-269 -514 -489 -936 -489 -938 0 -1 195 -3 433 -3 l434 0 13 43 c7 23 21 66
32 95 l20 52 261 -2 261 -3 36 -90 36 -90 497 -3 c273 -1 497 0 497 3 0 18
-1048 1876 -1074 1904 -17 18 -53 44 -81 57 -66 31 -185 33 -262 3z m141
-1010 c25 -68 65 -181 90 -251 l45 -128 -194 0 -193 0 38 98 c21 53 66 168
100 255 34 87 64 156 66 154 3 -2 24 -60 48 -128z"/>
<path d="M13760 15335 l0 -975 725 0 725 0 0 285 0 285 -345 0 -345 0 0 90 0
90 325 0 325 0 0 240 0 240 -325 0 -325 0 0 80 0 80 325 0 325 0 0 280 0 280
-705 0 -705 0 0 -975z"/>
<path d="M17840 15335 l0 -975 380 0 380 0 0 975 0 975 -380 0 -380 0 0 -975z"/>
<path d="M18900 15335 l0 -975 345 0 345 0 2 330 3 331 494 -331 494 -330 133
0 134 0 0 975 0 975 -345 0 -345 0 -2 -376 -3 -375 -526 375 -526 376 -102 0
-101 0 0 -975z"/>
</g>
</svg>
