<svg id="Logo" xmlns="http://www.w3.org/2000/svg" viewBox="0 0 722.07 721.7"><title>Apperino</title><rect x="357.83" y="293.92" width="513.33" height="513.33" rx="12" ry="12" transform="translate(-462.72 406.03) rotate(-45)" style="fill:#3f0012"/><path d="M603.89,194l-36.44,36.44-86,86L378.66,419.2,293,504.9l-26,26c-3.45,3.45-7.54,6.77-10.46,10.71-7.59,10.25.27,18.44,7.12,25.28l22.92,22.92,81.75,81.75L471.16,774.47l89.23,89.23c14.34,14.34,28.43,29,43,43,6.21,6,15.23,6.39,21.67.45,0.93-.85,1.79-1.79,2.68-2.68l19-19,77-77L825.9,706.42l92.61-92.61L969,563.29a25.1,25.1,0,0,0,4.6-5.46c3.57-6.43,1.61-13.59-3.26-18.6s-9.85-9.85-14.78-14.78l-72-72L782.95,351.81l-95.48-95.48-57.59-57.59c-1.43-1.43-2.83-2.88-4.28-4.28-6.3-6.06-15.14-6.32-21.7-.48-2.89,2.57,1.37,6.8,4.24,4.24,8.12-7.23,15.06,2.33,20.37,7.64l23.94,23.94,82.47,82.47L835.86,413.21,923.61,501c14.2,14.2,28.93,28,42.68,42.68,6.53,7,1.44,12.45-3.48,17.37l-20.59,20.59-77.84,77.84L764,759.84l-91,91-49.81,49.81a23.85,23.85,0,0,1-3.84,3.52c-4.85,3-9.37.56-12.8-2.87L590,884.82,517.17,812l-99.32-99.32-94.21-94.21L267.17,562c-5-5-11.59-10.59-4.77-18,3.93-4.3,8.28-8.28,12.4-12.4l67.47-67.47,98.16-98.16,96.21-96.21L599.32,207l8.82-8.82C610.87,195.48,606.63,191.24,603.89,194Z" transform="translate(-253.38 -189.75)"/><rect x="392.83" y="328.92" width="443.33" height="443.33" rx="12" ry="12" transform="translate(-462.72 406.03) rotate(-45)" style="fill:#754c24"/><path d="M603.89,243.47L572.6,274.76,498.16,349.2l-88.44,88.44-73.29,73.29-21.74,21.74c-3.5,3.5-8.46,7.34-10.44,12-4,9.36,2.14,15.55,8,21.44L332,585.77l70.73,70.73L491,744.8l76.7,76.7c12,12,23.64,24.36,36,36,6.19,5.83,15.15,6.06,21.46.24,0.81-.75,1.57-1.57,2.35-2.35l16.2-16.2,66.6-66.6L798,684.85l79.68-79.68,42.5-42.5c6.77-6.77,7.79-16.14.8-23.36-4.19-4.32-8.52-8.52-12.77-12.77L846,464.36l-86.74-86.74-81.87-81.87-48.6-48.6c-1.14-1.14-2.25-2.32-3.42-3.42a15.4,15.4,0,0,0-21.48-.27c-2.89,2.57,1.37,6.8,4.24,4.24,7.74-6.89,13.92,1.19,19,6.27l20.61,20.61,70.09,70.09,87,87L880.2,507c12.2,12.2,24.91,24.06,36.68,36.68,6,6.39,1.91,11.81-2.77,16.49l-17.34,17.34-66.49,66.49-86.47,86.47-78.2,78.2-42.8,42.8a21.47,21.47,0,0,1-3.51,3.2c-4.6,2.87-9.05.78-12.43-2.5-4.72-4.59-9.32-9.32-14-14L530.63,776l-85.21-85.21-80.69-80.69-48.8-48.8c-4.78-4.78-10.51-10.21-4.14-17.23,3.29-3.62,7-7,10.41-10.41L379.86,476l83.9-83.9,82.69-82.69,54.13-54.13,7.56-7.56C610.87,245,606.63,240.73,603.89,243.47Z" transform="translate(-253.38 -189.75)"/><line x1="85.62" y1="398.25" x2="85.62" y2="323.25" style="fill:none;stroke:#000;stroke-miterlimit:10;stroke-width:2px"/><line x1="110.62" y1="297.25" x2="110.62" y2="424.25" style="fill:none;stroke:#000;stroke-miterlimit:10;stroke-width:2px"/><line x1="159.62" y1="473.25" x2="159.62" y2="249.25" style="fill:none;stroke:#000;stroke-miterlimit:10;stroke-width:2px"/><line x1="188.62" y1="501.25" x2="188.62" y2="220.25" style="fill:none;stroke:#000;stroke-miterlimit:10;stroke-width:2px"/><line x1="212.62" y1="526.25" x2="212.62" y2="195.25" style="fill:none;stroke:#000;stroke-miterlimit:10;stroke-width:2px"/><line x1="235.62" y1="548.25" x2="235.62" y2="173.25" style="fill:none;stroke:#000;stroke-miterlimit:10;stroke-width:2px"/><line x1="261.62" y1="575.25" x2="261.62" y2="147.25" style="fill:none;stroke:#000;stroke-miterlimit:10;stroke-width:2px"/><line x1="286.62" y1="600.25" x2="286.62" y2="122.25" style="fill:none;stroke:#000;stroke-miterlimit:10;stroke-width:2px"/><line x1="305.62" y1="102.25" x2="305.62" y2="619.25" style="fill:none;stroke:#000;stroke-miterlimit:10;stroke-width:2px"/><line x1="330.62" y1="644.25" x2="330.62" y2="78.25" style="fill:none;stroke:#000;stroke-miterlimit:10;stroke-width:2px"/><line x1="358.62" y1="669.25" x2="358.62" y2="52.25" style="fill:none;stroke:#000;stroke-miterlimit:10;stroke-width:2px"/><line x1="391.62" y1="644.25" x2="391.62" y2="78.25" style="fill:none;stroke:#000;stroke-miterlimit:10;stroke-width:2px"/><line x1="423.62" y1="612.25" x2="423.62" y2="110.25" style="fill:none;stroke:#000;stroke-miterlimit:10;stroke-width:2px"/><line x1="454.62" y1="581.25" x2="454.62" y2="140.25" style="fill:none;stroke:#000;stroke-miterlimit:10;stroke-width:2px"/><line x1="487.62" y1="548.25" x2="487.62" y2="173.25" style="fill:none;stroke:#000;stroke-miterlimit:10;stroke-width:2px"/><line x1="521.62" y1="514.25" x2="521.62" y2="207.25" style="fill:none;stroke:#000;stroke-miterlimit:10;stroke-width:2px"/><line x1="546.62" y1="233.25" x2="546.62" y2="489.25" style="fill:none;stroke:#000;stroke-miterlimit:10;stroke-width:2px"/><line x1="604.62" y1="290.25" x2="604.62" y2="424.25" style="fill:none;stroke:#000;stroke-miterlimit:10;stroke-width:2px"/><line x1="636.62" y1="323.25" x2="636.62" y2="398.25" style="fill:#00aa3a;stroke:#000;stroke-miterlimit:10;stroke-width:2px"/><rect x="128.69" y="278.55" width="464.15" height="162.82" style="fill:#bdc3c7;stroke:#000;stroke-miterlimit:10;stroke-width:2px"/><path d="M415.58,572l23.26-44.41a6.29,6.29,0,0,1,4.42-3.16,9.71,9.71,0,0,1,2.31-.23,7,7,0,0,1,3,.78,5.74,5.74,0,0,1,2.56,2.45l25,44.59H452.35l-1.85-4.63H437.85L436.27,572H415.58Zm23.7-13.92h9.46l-4.48-12.66Z" transform="translate(-253.38 -189.75)"/><path d="M480.57,525.3q14.53-1.43,22-1.44A50.85,50.85,0,0,1,514.33,525a18.15,18.15,0,0,1,7.16,3.37q5.45,4.45,5.45,14.62a20,20,0,0,1-1.73,8.38,19.82,19.82,0,0,1-4.72,6.53,21.7,21.7,0,0,1-7,4.25,24,24,0,0,1-8.58,1.52l-5.21-.12V572H480.57V525.3ZM507,536q-2.52,0-7.38,3.49v11l3.43-1.67a15.73,15.73,0,0,0,4.75-3.19,8.6,8.6,0,0,0,2.52-5.65q0-2.81-1.9-3.72A3.24,3.24,0,0,0,507,536Z" transform="translate(-253.38 -189.75)"/><path d="M531.86,525.3q14.53-1.43,22-1.44A50.85,50.85,0,0,1,565.63,525a18.15,18.15,0,0,1,7.16,3.37q5.45,4.45,5.45,14.62a20,20,0,0,1-1.73,8.38,19.81,19.81,0,0,1-4.72,6.53,21.7,21.7,0,0,1-7,4.25,24,24,0,0,1-8.58,1.52l-5.21-.12V572H531.86V525.3ZM558.26,536q-2.52,0-7.38,3.49v11l3.43-1.67a15.73,15.73,0,0,0,4.75-3.19,8.6,8.6,0,0,0,2.52-5.65q0-2.81-1.9-3.72A3.24,3.24,0,0,0,558.26,536Z" transform="translate(-253.38 -189.75)"/><path d="M583.16,525.19h33.72v13.48h-15.5v3.84h15.44V554H601.39v4.42h16.52V572H583.16V525.19Z" transform="translate(-253.38 -189.75)"/><path d="M671.9,540.48q0,9.38-9.26,14.88L675.36,572H652.22L644,558.41V572H624.85V525.19q18.57-1.32,24.35-1.32a41.37,41.37,0,0,1,8.79.7q8.32,1.91,11.89,8.14A15.92,15.92,0,0,1,671.9,540.48Zm-17.4-.5q0-4.13-3.08-4.13a10.46,10.46,0,0,0-3.66,1l-3.9,1.61v11.46Q654.5,545.93,654.5,540Z" transform="translate(-253.38 -189.75)"/><path d="M699.24,572H681V525.19h18.22V572Z" transform="translate(-253.38 -189.75)"/><path d="M706.39,525.19h4.75l25.55,18.22V525.19h16.49V572h-6.3l-24.05-16.08V572H706.39V525.19Z" transform="translate(-253.38 -189.75)"/><path d="M785,573.12a26.41,26.41,0,0,1-18-6.74,24.43,24.43,0,0,1-4.51-30.73,24.32,24.32,0,0,1,9.43-8.67,26.07,26.07,0,0,1,12.26-3.11,33.67,33.67,0,0,1,11.18,1.7,25.11,25.11,0,0,1,8.42,4.88,22.46,22.46,0,0,1,5.64,7.78,25.28,25.28,0,0,1,2.05,10.4,22.92,22.92,0,0,1-3.66,12.82,24.42,24.42,0,0,1-9.76,8.64A28.81,28.81,0,0,1,785,573.12ZM793,543q0-5-4.75-5-2.05,0-4.57,2.58a21.27,21.27,0,0,0-5.27,9.29A11.85,11.85,0,0,0,778,553q0,4.86,4.92,4.86,2,0,4.48-2.61a21.86,21.86,0,0,0,5.19-9.37A11.28,11.28,0,0,0,793,543Z" transform="translate(-253.38 -189.75)"/></svg>